<?xml version="1.0" encoding="UTF-8"?>
<svg width="24px" height="24px" viewBox="0 0 24 24" version="1.1" xmlns="http://www.w3.org/2000/svg" xmlns:xlink="http://www.w3.org/1999/xlink">
    <title>checkbox-marked-circle-outline</title>
    <defs>
        <filter id="filter-1">
            <feColorMatrix in="SourceGraphic" type="matrix" values="0 0 0 0 1.000000 0 0 0 0 1.000000 0 0 0 0 1.000000 0 0 0 1.000000 0"></feColorMatrix>
        </filter>
    </defs>
    <g id="uifw_measure" stroke="none" stroke-width="1" fill="none" fill-rule="evenodd">
        <g id="checkbox-marked-circle-outline" transform="translate(-487.000000, -873.000000)" filter="url(#filter-1)">
            <g transform="translate(487.000000, 873.000000)">
                <rect id="Rectangle" x="0" y="0" width="24" height="24"></rect>
                <path d="M20,12 C20,16.418278 16.418278,20 12,20 C7.581722,20 4,16.418278 4,12 C4,7.581722 7.581722,4 12,4 C12.76,4 13.5,4.11 14.2,4.31 L15.77,2.74 C14.61,2.26 13.34,2 12,2 C6.4771525,2 2,6.4771525 2,12 C2,14.6521649 3.0535684,17.195704 4.92893219,19.0710678 C6.80429597,20.9464316 9.3478351,22 12,22 C14.6521649,22 17.195704,20.9464316 19.0710678,19.0710678 C20.9464316,17.195704 22,14.6521649 22,12 M7.91,10.08 L6.5,11.5 L11,16 L21,6 L19.59,4.58 L11,13.17 L7.91,10.08 Z" id="Shape" fill="#000000" fill-rule="nonzero"></path>
            </g>
        </g>
    </g>
</svg>