<?xml version="1.0" encoding="UTF-8"?>
<svg width="24px" height="24px" viewBox="0 0 24 24" version="1.1" xmlns="http://www.w3.org/2000/svg" xmlns:xlink="http://www.w3.org/1999/xlink">
    <title>information</title>
    <defs>
        <filter id="filter-1">
            <feColorMatrix in="SourceGraphic" type="matrix" values="0 0 0 0 1.000000 0 0 0 0 1.000000 0 0 0 0 1.000000 0 0 0 1.000000 0"></feColorMatrix>
        </filter>
    </defs>
    <g id="uifw_measure" stroke="none" stroke-width="1" fill="none" fill-rule="evenodd">
        <g id="components/feedback/notification" transform="translate(-712.000000, -753.000000)">
            <g id="information" transform="translate(712.000000, 753.000000)">
                <rect id="Rectangle" x="0" y="0" width="24" height="24"></rect>
                <g filter="url(#filter-1)" id="information-outline">
                    <g transform="translate(2.000000, 2.000000)">
                        <path d="M9,7 L11,7 L11,5 L9,5 M10,18 C5.59,18 2,14.41 2,10 C2,5.59 5.59,2 10,2 C14.41,2 18,5.59 18,10 C18,14.41 14.41,18 10,18 M10,-4.4408921e-16 C4.4771525,-4.4408921e-16 -4.4408921e-16,4.4771525 -4.4408921e-16,10 C-4.4408921e-16,12.6521649 1.0535684,15.195704 2.92893219,17.0710678 C4.80429597,18.9464316 7.3478351,20 10,20 C12.6521649,20 15.195704,18.9464316 17.0710678,17.0710678 C18.9464316,15.195704 20,12.6521649 20,10 C20,7.3478351 18.9464316,4.80429597 17.0710678,2.92893219 C15.195704,1.0535684 12.6521649,-4.4408921e-16 10,-4.4408921e-16 M9,15 L11,15 L11,9 L9,9 L9,15 Z" id="Shape" fill="#000000" fill-rule="nonzero"></path>
                    </g>
                </g>
            </g>
        </g>
    </g>
</svg>